<?xml version="1.0" encoding="UTF-8"?>
<svg id="Layer_2" xmlns="http://www.w3.org/2000/svg" viewBox="0 0 566.2 301.83">
  <defs>
    <style>
      .cls-1, .cls-2 {
        fill: #1d65a7;
      }

      .cls-2 {
        font-family: Poppins-Regular, Poppins;
        font-size: 54.61px;
        letter-spacing: .14em;
      }
    </style>
  </defs>
  <g id="Layer_1-2" data-name="Layer_1">
    <g>
      <g>
        <path class="cls-1" d="M319.26,90.13c-3.17-.49-7.08-.02-9.29-1.74-2-1.55-1.94-5.58-3.16-8.35-1.86-4.23-3.77-8.49-6.14-12.45-3.75-6.24-7.25-12.45-7.49-19.99-.38-11.88,6.73-22.53,17.62-26.2,11.23-3.79,23.56.08,30.12,10.13,6.9,10.56,5.51,21.32-.35,31.98-3.11,5.66-6.5,11.32-8.54,17.39-2.9,8.64-2.42,8.8-11.67,8.79-.35,0-.7,0-1.05,0l-.07.45ZM319.54,37.53c-5.73.43-10.49,2.38-13.11,7.57-2.4,4.75.1,8.76,2.82,12.55.07.09.16.17.22.27,2.32,3.87,4.55,7.79,7.01,11.56.55.85,1.91,1.6,2.91,1.62,1.01.02,2.41-.68,2.98-1.51,2.91-4.31,5.45-8.88,8.42-13.14,4.75-6.8,3.04-13.89-4.56-17.17-2.09-.9-4.45-1.18-6.68-1.75Z"/>
        <path class="cls-1" d="M274.27,52.85c-1.89-1.12-3.33-1.98-4.76-2.83,1.55-.62,3.07-1.6,4.66-1.76,1.77-.17,4.47-.99,4.78,1.79.08.7-2.84,1.74-4.68,2.8Z"/>
        <path class="cls-1" d="M322,4.48c-.91,1.79-1.66,3.26-2.41,4.74-.63-1.55-1.61-3.06-1.79-4.66-.19-1.73-.91-4.34,1.91-4.56.61-.05,1.43,2.73,2.29,4.48Z"/>
        <path class="cls-1" d="M349.67,22.74c-1.01-1.41-1.9-2.41-1.79-2.53,1.92-2.15,3.94-4.22,6.04-6.2.08-.08,1.1.85,1.69,1.3-1.85,2.32-3.7,4.64-5.93,7.43Z"/>
        <path class="cls-1" d="M365.28,47.5c1.45.81,4.18,1.73,4.12,2.4-.25,2.75-2.83,1.87-4.67,2.05-.57.06-1.27.2-1.72-.04-.97-.54-1.82-1.31-2.72-1.99.85-.59,1.64-1.31,2.57-1.72.58-.26,1.37-.05,2.07-.05l.34-.65Z"/>
        <path class="cls-1" d="M366.31,69.48c-1,.36-1.97,1.09-2.64.87-2.07-.67-4.07-1.64-6.01-2.66-.43-.23-.78-1.25-.63-1.73.15-.49,1.14-1.18,1.49-1.05,2.37.84,4.68,1.86,6.97,2.9.31.14.39.77.81,1.67Z"/>
        <path class="cls-1" d="M300.84,2.78c1.07.87,1.77,1.17,2.02,1.69.85,1.75,1.71,3.53,2.2,5.4.19.71-.63,1.68-.99,2.53-.7-.44-1.69-.72-2.03-1.35-.88-1.6-1.65-3.31-2.09-5.07-.2-.8.47-1.82.89-3.2Z"/>
        <path class="cls-1" d="M285.82,13.36c1.89,2.32,3.78,4.65,5.66,6.97-.99.29-2.4,1.14-2.91.77-1.67-1.21-3.17-2.76-4.41-4.42-.44-.6.07-1.9.15-2.88.5-.14,1-.29,1.5-.43Z"/>
        <path class="cls-1" d="M355.91,33.47c3.27-1.36,5.83-2.51,8.47-3.41.28-.09,1.61,1.4,1.51,1.99-.33,1.99-7.04,3.58-9.98,1.41Z"/>
        <path class="cls-1" d="M356.57,84.73c-1.67.68-2.9,1.51-3.22,1.25-1.92-1.6-3.67-3.42-5.31-5.3-.12-.13,1.09-1.42,1.68-2.17,2.07,1.88,4.13,3.76,6.85,6.23Z"/>
        <path class="cls-1" d="M282.7,65.8c-.79.99-1.1,1.72-1.63,1.98-1.75.85-3.55,1.66-5.41,2.19-.64.18-1.53-.52-2.31-.81.32-.75.43-1.89.99-2.18,1.81-.96,3.74-1.77,5.72-2.31.65-.18,1.57.65,2.64,1.14Z"/>
        <path class="cls-1" d="M282.45,33.96c-.53.38-1.25,1.24-1.66,1.11-2.29-.69-4.53-1.55-6.68-2.58-.2-.09.41-1.85.64-2.83,2.4,1,4.81,1.98,7.18,3.03.22.1.26.6.52,1.27Z"/>
        <path class="cls-1" d="M340.09,5.37c-1.03,2.31-1.89,4.43-2.94,6.46-.22.42-1.54.79-1.68.62-.52-.62-1.2-1.6-1.02-2.22.56-1.98,1.38-3.92,2.32-5.76.27-.52,1.37-1,1.95-.86.54.13.89,1.09,1.37,1.76Z"/>
        <path class="cls-1" d="M291.94,80.58c-2.2,1.88-4.4,3.76-6.61,5.64-.41-.92-1.43-2.3-1.13-2.69,1.3-1.72,2.87-3.3,4.59-4.6.56-.42,1.88.18,2.85.31.1.45.2.89.3,1.34Z"/>
      </g>
      <g>
        <path class="cls-1" d="M77.62,214.81c-.95-2.85-1.66-6.88-1.9-10.44-7.35,8.06-19.69,13.52-35.34,13.52-26.56,0-38.9-13.04-38.9-32.02,0-33.68,22.53-37.47,53.6-41.74,15.42-2.13,19.69-5.22,19.69-13.28,0-7.59-7.59-12.1-19.69-12.1-13.99,0-19.69,6.88-21.11,17.31H5.28c.47-24.19,13.76-41.03,51.23-41.03s49.81,16.6,49.81,46.01v73.76h-28.7ZM75.49,157.65c-3.08,3.08-8.54,4.74-19.92,6.88-17.55,3.32-23.24,8.3-23.24,18.26,0,8.78,5.22,13.04,14.94,13.04,15.89,0,27.75-11.62,27.99-25.38l.24-12.81Z"/>
        <path class="cls-1" d="M119.84,214.81v-116.69h28.94v13.99c10.2-15.65,22.06-17.08,34.63-17.08h4.03v31.55c-2.85-.47-5.69-.71-8.54-.71-18.97,0-28.22,9.49-28.22,28.22v60.72h-30.83Z"/>
        <path class="cls-1" d="M262.15,137.96h28.7v33.21c0,24.67-14.23,46.72-47.2,46.72s-47.67-21.82-47.67-46.96v-104.36h30.36v31.55h64.51v21.82h-64.51v47.91c0,14.71,5.22,23.24,17.79,23.24s18.03-8.3,18.03-22.77v-30.36Z"/>
        <path class="cls-1" d="M304.12,214.81v-116.69h30.83v116.69h-30.83Z"/>
        <path class="cls-1" d="M454.02,172.59c-3.32,27.04-25.38,45.3-53.6,45.3-31.78,0-53.6-21.11-53.6-62.85s21.82-60.01,54.55-60.01c30.36,0,50.99,17.31,52.89,44.83h-31.07c-1.66-12.1-10.44-19.21-22.06-19.21-13.04,0-23.72,8.3-23.72,33.68s10.67,37.71,22.77,37.71,21.58-6.88,22.77-19.45h31.07Z"/>
        <path class="cls-1" d="M533.23,133.45c-1.66-11.38-7.83-15.42-21.82-15.42-11.62,0-18.26,2.85-18.26,9.72s6.4,9.72,18.97,13.28c13.28,3.79,25.85,6.4,34.87,9.96,12.33,4.98,19.21,13.04,19.21,28.22,0,24.19-17.79,38.66-50.99,38.66-35.81,0-55.74-16.84-56.21-40.56h31.78c0,10.91,9.25,17.31,24.19,17.31,10.91,0,20.64-3.32,20.64-12.1,0-8.3-8.78-10.91-18.74-13.28-19.69-4.74-30.6-8.06-38.9-13.28-10.91-6.88-14.71-15.89-14.71-26.33,0-19.69,13.52-34.63,49.1-34.63,33.68,0,48.86,13.28,50.52,38.42h-29.65Z"/>
      </g>
      <text class="cls-2" transform="translate(0 270.59)"><tspan x="0" y="0">COMMUNICATION</tspan></text>
    </g>
  </g>
</svg>